PathFileType	4	(X/Y/Z)	KinectSkeleton.trc																																																	
DataRate	CameraRate	NumFrames	NumMarkers	Units	OrigDataRate	OrigDataStartFrame	OrigNumFrames																																													
60	60	21	17	mm	60	50	300																																													
Frame#	Time	Neck			ShoulderMid			R.Shoulder			L.Shoulder			R.Elbow			L.Elbow			R.Wrist			L.Wrist			HipCenter			R.Hip			L.Hip			R.Knee			L.Knee			R.Ankle			L.Ankle			R.Foot			L.Foot		
		X1	Y1	Z1	X2	Y2	Z2	X3	Y3	Z3	X4	Y4	Z4	X5	Y5	Z5	X6	Y6	Z6	X7	Y7	Z7	X8	Y8	Z8	X9	Y9	Z9	X10	Y10	Z10	X11	Y11	Z11	X12	Y12	Z12	X13	Y13	Z13	X14	Y14	Z14	X15	Y15	Z15	X16	Y16	Z16	X17	Y17	Z17
																																																				
50	3.295	-1885.558	1081.424	285.432	-1885.558	1081.424	285.432	-1877.634	1013.349	453.97	-1868.356	998.241	111.622	-1912.516	733.938	530.618	-1913.487	720.724	57.063	-1802.616	517.812	552.254	-1803.047	507.236	60.276	-1871.94	525.43	313.403	-1881.197	530.219	397.981	-1861.675	520.118	219.61	-1932.788	121.982	447.632	-1924.261	112.052	178.138	-2031.66	-264.977	480.037	-2011.269	-272.99	140.592	-1899.585	-374.432	529.914	-1843.335	-369.499	127.055
51	3.369	-1884.947	1080.412	290.165	-1884.947	1080.412	290.165	-1889.148	1000.673	454.758	-1870.756	1003.301	113.693	-1900.913	727.712	556.771	-1893.427	730.828	29.031	-1767.248	533.223	615.829	-1762.479	531.521	0.057	-1873.622	524.608	313.715	-1884.455	529.72	398.031	-1861.607	518.937	220.212	-1937.018	121.892	447.796	-1925.13	111.279	178.82	-2029.465	-266.451	479.411	-2012.993	-273.151	139.73	-1895.66	-372.237	532.106	-1844.675	-368.817	126.788
52	3.434	-1888.964	1077.815	287.864	-1888.964	1077.815	287.864	-1899.398	1013.471	456.044	-1874.283	1005.035	111.487	-1898.991	775.628	622.919	-1863.007	770.496	-50.301	-1716.949	643.901	713.731	-1691.51	617.625	-117.37	-1879.313	524.287	313.373	-1887.942	529.021	397.643	-1869.744	519.038	219.919	-1936.456	122.178	446.701	-1928.018	112.169	178.564	-2028.226	-264.645	479.928	-2010.134	-272.045	139.855	-1896.087	-372.8	529.675	-1843.238	-368.693	126.661
53	3.496	-1896.485	1079.013	290.083	-1896.485	1079.013	290.083	-1908.992	1022.065	461.375	-1885.65	1005.105	113	-1852.398	867.004	703.038	-1801.661	851.973	-115.02	-1666.463	803.352	847.853	-1623.426	781.08	-261.036	-1907.88	522.793	311.156	-1919.649	526.053	395.739	-1894.829	519.178	217.357	-1944.79	114.585	448.906	-1936.93	106.771	181.508	-2024.229	-277.991	481.342	-2013.053	-282.137	148.489	-1886.805	-376.976	539.744	-1841.922	-374.902	143.721
54	3.541	-1898.049	1088.273	296.225	-1898.049	1088.273	296.225	-1894.568	1030.856	468.096	-1878.745	1023.298	116.265	-1830.052	999.548	753.113	-1807.848	971.66	-158.519	-1666.022	1029.663	932.805	-1618.321	1012.187	-303.592	-1882.029	529.012	314.52	-1892.67	532.019	399.628	-1870.229	525.677	220.139	-1938.104	119.988	448.635	-1929.809	114.007	180.275	-2032.374	-271.226	478.946	-2016.108	-274.113	142.918	-1896.132	-376.198	531.731	-1849.934	-377.133	139.776
55	3.586	-1903.525	1106.079	291.208	-1903.525	1106.079	291.208	-1896.618	1048.99	465.393	-1880.318	1042.244	108.95	-1827.976	1059.298	754.843	-1781.655	1053.856	-165.769	-1686.372	1130.061	946.127	-1626.215	1119.518	-343.656	-1892.779	540.969	314.682	-1901.329	545.486	401.062	-1883.297	535.961	218.889	-1935.059	126.9	449.707	-1933.702	117.674	178.906	-2032.666	-268.912	478.841	-2013.044	-277.381	143.986	-1896.419	-378.807	529.435	-1839.929	-372.486	129.596
56	3.632	-1902.013	1108.724	295.305	-1902.013	1108.724	295.305	-1890.795	1051.231	468.425	-1885.469	1047.076	112.107	-1827.956	1115.435	751.463	-1792.606	1103.452	-158.328	-1716.259	1224.904	943.551	-1653.109	1205.271	-331.552	-1896	544.78	311.421	-1902.326	548.22	397.836	-1888.985	540.966	215.59	-1934.371	130.873	449.503	-1932.836	122.983	175.266	-2030.954	-264.164	479.045	-2006.658	-272.103	139.651	-1899.385	-378.877	529.778	-1836.878	-372.773	130.963
57	3.678	-1898.02	1109.506	288.104	-1898.02	1109.506	288.104	-1881.866	1077.397	461.448	-1869.757	1090.853	106.524	-1843.502	1194.945	730.047	-1793.621	1216.96	-143.514	-1767.256	1351.215	904.989	-1698.58	1362.019	-314.546	-1892.961	548.098	310.043	-1898.262	552.644	396.107	-1887.083	543.058	214.6	-1927.596	136.764	446.64	-1930.01	126.678	175.422	-2029.769	-254.792	479.692	-2003.533	-266.444	136.907	-1899.772	-370.246	530.042	-1837.622	-371.703	126.941
58	3.725	-1893.154	1106.684	292.903	-1893.154	1106.684	292.903	-1878.336	1071.726	465.738	-1866.437	1086.65	111.899	-1857.986	1210.127	724.763	-1807.944	1234.021	-129.627	-1782.514	1384.043	880.834	-1723.804	1397.416	-287.821	-1889.316	547.179	310.145	-1894.427	550.366	395.899	-1883.648	543.646	215.048	-1929.372	136.823	446.626	-1924.403	128.91	176.024	-2029.029	-253.524	479.641	-2002.664	-261.368	136.453	-1901.443	-370.87	528.898	-1839.59	-369.393	126.4
59	3.801	-1894.087	1108.073	291.233	-1894.087	1108.073	291.233	-1883.548	1076.701	464.75	-1869.086	1095.005	111.063	-1880.404	1217.202	723.727	-1821.292	1252.839	-126.486	-1805.54	1405.39	862.974	-1748.381	1434.188	-270.378	-1888.035	548.45	310.464	-1893.468	551.682	396.274	-1882.011	544.865	215.304	-1930.343	137.9	446.791	-1927.141	130.255	175.725	-2028.444	-253.226	479.703	-2002.643	-260.959	136.387	-1901.486	-371.002	530.136	-1840.021	-369.976	126.28
60	3.846	-1892.14	1096.803	289.702	-1892.14	1096.803	289.702	-1884.258	1079.436	459.92	-1873.693	1099.443	113.188	-1875.97	1235.172	706.842	-1823.409	1270.632	-111.136	-1814.278	1409.802	865.103	-1745.869	1445.006	-257.609	-1879.44	541.544	305.72	-1889.465	544.988	390.342	-1868.323	537.726	211.878	-1928.025	135.465	443.757	-1920.864	127.539	174.376	-2028.249	-251.025	481.039	-2002.365	-258.994	136.577	-1901.133	-367.528	528.26	-1843.931	-371.056	126.683
61	3.893	-1891.2	1096.347	289.27	-1891.2	1096.347	289.27	-1881.785	1077.934	459.558	-1874.699	1099.388	112.54	-1873.985	1234.474	706.11	-1822.393	1270.397	-111.589	-1818.925	1407.531	868.621	-1743	1443.982	-258.147	-1883.636	541.154	305.859	-1891.661	544.973	390.708	-1874.738	536.92	211.764	-1929.052	135.138	443.708	-1923.279	126.095	174.226	-2028.595	-251.703	480.7	-2002.006	-261.165	136.513	-1901.06	-367.622	528.464	-1840.36	-368.635	126.285
62	3.939	-1893.412	1096.811	288.445	-1893.412	1096.811	288.445	-1882.792	1077.595	458.736	-1875.514	1099.531	111.819	-1868.701	1230.037	707.419	-1817.376	1268.158	-112.52	-1808.308	1400.143	870.992	-1735.837	1438.128	-261.941	-1884.499	542.03	304.667	-1892.275	545.711	389.509	-1875.876	537.949	210.581	-1930.229	136.286	443.867	-1924.011	127.229	173.333	-2029.113	-250.573	480.59	-2003.197	-259.815	136.149	-1903.527	-368.174	529.117	-1844.185	-371.019	126.148
63	3.987	-1895.929	1099.178	287.112	-1895.929	1099.178	287.112	-1883.528	1072.849	458.174	-1876.457	1098.461	110.014	-1869.346	1221.036	709.244	-1813.041	1267.854	-112.128	-1806.954	1388.47	874.635	-1731.544	1435.956	-263.481	-1886.131	545.053	305.947	-1893.25	549.054	390.79	-1878.236	540.616	211.86	-1928.801	139.513	444.333	-1924.372	129.929	173.996	-2027.671	-247.212	480.345	-2000.891	-257.411	136.398	-1904.299	-367.027	528.81	-1843.579	-370.818	126.089
64	4.032	-1898.131	1102.185	290.935	-1898.131	1102.185	290.935	-1883.726	1068.754	461.923	-1876.749	1097.831	112.431	-1865.689	1219.335	711.737	-1810.232	1264.304	-111.46	-1805.559	1383.172	881.94	-1725.176	1432.589	-261.112	-1888.628	546.965	305.051	-1895.453	550.441	390.047	-1881.059	543.11	210.795	-1928.773	140.252	444.019	-1925.861	131.683	173.78	-2026.118	-247.331	480.449	-2000.574	-256.563	136.734	-1904.447	-368.952	529.523	-1842.974	-369.955	126.179
65	4.078	-1896.977	1098.884	290.682	-1896.977	1098.884	290.682	-1883.57	1068.781	461.109	-1875.296	1094.549	112.554	-1862.014	1213.553	713.257	-1804.261	1256.48	-112.407	-1794.074	1378.202	878.847	-1711.484	1419.73	-262.131	-1889.18	544.968	304.462	-1897.977	548.593	389.066	-1879.425	540.948	210.64	-1928.135	139.289	444.041	-1924.526	130.564	173.459	-2025.005	-247.423	480.516	-2000.231	-256.544	136.607	-1905.182	-370.07	530.034	-1845.004	-372.434	126.512
66	4.124	-1894.435	1096.396	290.089	-1894.435	1096.396	290.089	-1885.038	1070.541	460.214	-1874.66	1093.929	113.075	-1862.562	1212.545	712.805	-1801.481	1254.402	-111.107	-1790.248	1374.883	877.709	-1708.421	1416.939	-260.23	-1890.321	543.969	303.93	-1896.985	547.169	388.479	-1882.93	540.419	210.169	-1928.942	139.311	443.469	-1925.811	131.083	173.223	-2024.523	-246.302	481.267	-2000.4	-255.015	136.78	-1904.063	-368.233	528.972	-1844.498	-368.945	126.382
67	4.17	-1893.893	1095.903	289.694	-1893.893	1095.903	289.694	-1882.389	1069.495	459.627	-1872.49	1093.652	112.92	-1858.113	1208.595	713.575	-1798.786	1253.652	-111.333	-1786.594	1372.96	876.716	-1706.475	1416.019	-261.006	-1887.899	543.346	302.919	-1895.48	546.432	387.373	-1879.491	539.924	209.263	-1932.656	139.28	443.486	-1926.782	131.151	172.674	-2025.317	-246.919	481.464	-2002.847	-254.616	136.905	-1905.337	-369.301	529.05	-1846.792	-368.17	125.674
68	4.216	-1893.193	1097.195	289.604	-1893.193	1097.195	289.604	-1882.556	1072.661	459.583	-1872.821	1093.902	112.418	-1855.695	1211.63	713.587	-1794.541	1249.854	-113.398	-1786.141	1370.993	882.697	-1696.335	1410.167	-261.809	-1888.841	544.023	301.325	-1893.71	546.565	386.058	-1883.441	541.204	207.358	-1934.316	139.392	441.87	-1927.436	131.618	172.355	-2024.115	-247.612	481.583	-2002.353	-254.811	138.13	-1902.642	-368.806	528.909	-1845.48	-367.306	125.295
69	4.262	-1894.652	1096.179	288.638	-1894.652	1096.179	288.638	-1885.232	1072.43	458.587	-1871.913	1093.917	112.033	-1854.352	1211.425	711.974	-1793.133	1250.128	-113.271	-1782.626	1369.377	881.348	-1696.308	1410.09	-262.796	-1892.854	543.853	301.175	-1898.345	546.612	385.826	-1886.763	540.793	207.299	-1932.92	139.118	442.03	-1926.936	130.975	172.53	-2025.636	-246.984	482.068	-2003.632	-254.883	137.799	-1904.081	-368.212	528.802	-1846.82	-367.358	125.319
70	4.309	-1895.9	1095.597	288.365	-1895.9	1095.597	288.365	-1882.447	1071.422	458.262	-1871.308	1091.569	111.833	-1854.493	1206.938	713.855	-1790.369	1244.849	-114.707	-1784.685	1368.928	880.179	-1693.281	1402.871	-266.101	-1890.727	543.029	301.311	-1895.62	545.564	386.004	-1885.3	540.219	207.389	-1933.33	138.332	442.002	-1927.567	130.641	172.416	-2025.75	-247.866	481.689	-2003.372	-255.402	137.912	-1904.253	-368.841	529.205	-1845.55	-366.454	125.499
